<svg version="1.1" xmlns="http://www.w3.org/2000/svg" width="1024" height="1024" viewBox="0 0 1024 1024" fill="#fff">
<path d="M829.998 771.561l11.449-16.085c13.981-19.639 21.456-46.804 18.389-71.952l-2.407-19.731 9.253-17.595c10.295-19.574 14.35-42.769 9.369-67.31l-4.825-23.729 12.167-20.931c9.817-16.886 14.905-33.498 14.905-54.733 0-44.374-38.134-85.274-83.397-85.274h-154.589l32.574-86.141c6.351-16.79 11.053-35.751 11.053-58.471 0-53.164-13.496-80.56-26.936-94.591-13.072-13.64-35.048-24.002-72.648-24.002-7.16 0-10.065 1.785-13.693 5.722-5.625 6.086-11.983 17.475-18.147 36.158-5.032 15.249-8.553 30.666-12.332 47.225-0.827 3.632-1.666 7.321-2.54 11.076-2.194 9.447-4.882 20.499-8.233 30.469-2.604 7.749-8.75 25.207-22.646 39.324-15.626 15.866-33.876 40.479-55.427 69.569-0.511 0.687-1.021 1.381-1.543 2.079-18.64 25.172-41.937 56.625-63.628 76.129l-18.145 16.32h-53.464l-0.767-63.632h29.831c16.914-15.213 37.348-42.804 58.522-71.389 19.879-26.841 40.41-54.557 59.28-73.726 6.844-6.95 11.175-25.984 16.508-49.438 12.918-56.792 31.738-139.52 106.432-139.52 98.645 0 163.218 55.567 163.218 182.225 0 5.968-0.238 11.746-0.669 17.346-1.904 24.464-7.637 45.496-14.493 63.632h62.493c1.535 0 3.054 0.024 4.576 0.071 81.018 2.587 142.455 73.656 142.455 148.833 0 33.319-8.503 60.88-23.526 86.723 8.011 39.403 1.484 77.492-15.4 109.594 5.066 41.533-6.889 84.505-29.711 116.562-1.63 97.276-61.368 165.873-193.49 165.873l-38.067-0.017c-107.439 0-175.324-26.007-229.254-46.674-34.422-13.184-63.156-24.194-92.866-24.873l1.453-63.615c28.448 0.65 54.169 7.616 76.731 15.267 11.337 3.843 25.991 9.429 40.022 14.775 9.756 3.718 19.208 7.317 27.029 10.144 44.384 16.003 98.349 31.345 176.885 31.345l38.067 0.017c55.507 0 86.036-14.322 102.442-29.521 15.961-14.775 26.822-38.010 27.427-73.789l0.33-19.746z"></path>
<path d="M277.049 391.43v489.486h-146.844v-489.486h146.844zM130.201 327.792c-35.145 0-63.632 28.491-63.632 63.632v489.486c0 35.146 28.491 63.632 63.632 63.632h146.844c35.145 0 63.632-28.49 63.632-63.632v-489.486c0-35.145-28.491-63.632-63.632-63.632h-146.844z"></path>
</svg>
