<svg fill="currentColor" viewBox="0 0 60 60" xmlns="http://www.w3.org/2000/svg">
<path d="M2.32,20.22C-2.33,28.29.63,40.53,5.77,48c2.57,3.71,5.17,7,8.72,7h.2a10.77,10.77,0,0,0,4-1.08,11.09,11.09,0,0,1,4.8-1.14,10.43,10.43,0,0,1,4.57,1.1,9.67,9.67,0,0,0,4.37,1c4-.07,6.47-3.67,8.64-6.84a30.33,30.33,0,0,0,3.79-7.76l0,0a.45.45,0,0,0-.24-.55h0a11.49,11.49,0,0,1-7-10.52,11.83,11.83,0,0,1,5.59-9.89l0,0a.45.45,0,0,0,.13-.63,13,13,0,0,0-10.23-5.56c-.29,0-.59,0-.89,0a17.84,17.84,0,0,0-6.42,1.6,10.32,10.32,0,0,1-3.08.92,10.06,10.06,0,0,1-3.18-.93A15.42,15.42,0,0,0,14,13.21h-.14A13.75,13.75,0,0,0,2.32,20.22Z" />
<path d="M33.22,0a12.56,12.56,0,0,0-8.29,4.25c-1.73,2-3.42,5.35-3,8.72a.45.45,0,0,0,.41.39l.58,0a10.62,10.62,0,0,0,7.83-4,12.4,12.4,0,0,0,2.92-9A.45.45,0,0,0,33.22,0Z" />
</svg>