<svg fill="none" height="24" fill="currentColor" viewBox="0 0 24 24" width="24" xmlns="http://www.w3.org/2000/svg">
    <path clip-rule="evenodd" d="M2.25 4.54927C2.25 2.83368 4.093 1.74925 5.5927 2.58242L19.004 10.0331C20.5471 10.8904 20.5471 13.1096 19.004 13.9669L5.5927 21.4176C4.093 22.2507 2.25 21.1663 2.25 19.4507V17C2.25 16.5858 2.58579 16.25 3 16.25C3.41421 16.25 3.75 16.5858 3.75 17V19.4507C3.75 20.0226 4.36433 20.3841 4.86423 20.1063L18.2755 12.6556C18.7899 12.3699 18.7899 11.6301 18.2755 11.3444L4.86423 3.89365C4.36433 3.61593 3.75 3.97741 3.75 4.54927V13C3.75 13.4142 3.41421 13.75 3 13.75C2.58579 13.75 2.25 13.4142 2.25 13V4.54927Z" fill-rule="evenodd"/>
    <path clip-rule="evenodd" d="M16.0415 8.48107C16.3281 8.78013 16.318 9.2549 16.0189 9.54149L4.01893 21.0415C3.71987 21.3281 3.24511 21.318 2.95851 21.0189C2.67191 20.7199 2.68201 20.2451 2.98107 19.9585L14.9811 8.45851C15.2801 8.17191 15.7549 8.18201 16.0415 8.48107Z" fill-rule="evenodd"/>
    <path clip-rule="evenodd" d="M16.0415 15.5189C16.3281 15.2199 16.318 14.7451 16.0189 14.4585L4.01893 2.95851C3.71987 2.67191 3.24511 2.68201 2.95851 2.98107C2.67191 3.28013 2.68201 3.75489 2.98107 4.04149L14.9811 15.5415C15.2801 15.8281 15.7549 15.818 16.0415 15.5189Z" fill-rule="evenodd"/>
</svg>