<svg version="1.1" xmlns="http://www.w3.org/2000/svg" width="1024" height="1024" viewBox="0 0 1024 1024" fill="#fff">
<path d="M878.77 810.884l14.575-18.568c17.769-22.663 27.353-54.005 23.461-83.057l-3.093-22.76 11.781-20.267c13.079-22.561 18.268-49.416 11.98-77.767l-6.191-27.353 15.475-24.159c12.479-19.468 18.965-38.632 18.965-63.192 0-51.212-46.817-123.388-104.419-123.388h-177.495l20.267-74.572c8.088-19.367 14.076-41.231 14.076-67.485 0-61.396-17.169-93.039-34.343-109.211-16.671-15.775-44.624-27.751-92.54-27.751-9.085 0-12.779 2.096-17.469 6.588-7.188 6.989-15.272 20.165-23.161 41.729-6.389 17.571-10.881 35.437-15.673 54.504v0c-1.099 4.192-2.096 8.485-3.195 12.779-2.793 10.881-6.191 23.66-10.48 35.137-3.296 8.984-11.181 29.149-28.849 45.423-19.865 18.369-43.124 46.72-70.68 80.361l-1.995 2.396c-13.776 16.869-27.353 33.641-41.729 49.116v496.544c8.587 2.895 17.668 5.988 26.453 9.085 12.479 4.293 24.459 8.485 34.44 11.68 56.604 18.467 125.285 36.236 225.411 36.236h48.516c70.777 0 109.612-16.573 130.576-34.043 20.364-17.072 34.14-43.923 34.939-85.153l0.397-22.861v0.009z"></path>
<path d="M245.821 945.082h-130.576c-32.145 0-58.201-26.153-58.201-58.201v-502.832c0-32.145 26.153-58.201 58.201-58.201h130.576c32.145 0 58.201 26.153 58.201 58.201v502.933c0 32.044-26.056 58.1-58.201 58.1zM245.821 894.069v0z"></path>
</svg>
