<svg width="64" height="64" viewBox="0 0 64 64" fill="none" xmlns="http://www.w3.org/2000/svg">
<path fill-rule="evenodd" clip-rule="evenodd" d="M47.3339 20.0659C47.3339 20.0659 56.1388 31.5728 44.1843 34.6273L47.3339 20.0659Z" fill="#19141E"/>
<path d="M30.9284 59.6222L30.6357 49.4761C30.6357 49.4761 43.2366 50.4578 45.8664 49.0877C45.8664 49.0877 47.8652 36.7589 45.9647 28.0175L35.618 18.6479L18.9196 19.8809L17.0244 35.038C16.1506 32.4529 8.19639 29.2124 6.28697 35.0115C3.82477 42.4893 18.0165 46.4189 18.0165 46.4189L16.5335 59.7443" fill="#5E93D1"/>
<path d="M11.2378 19.3032L7.14893 15.1257L9.38173 12.9403L13.1158 16.7552L13.4794 16.5808L12.516 11.2059L15.5914 10.6547L16.3634 14.962C23.8109 10.4028 29.6928 13.9567 29.6928 13.9567C29.6928 13.9567 32.0666 3.97132 38.6376 4.00006C47.9986 4.04054 49.4434 18.5457 49.4434 18.5457C49.4434 18.5457 54.1614 10.6572 56.8442 11.7847C59.527 12.9126 59.601 39.1135 22.3552 26.3449C22.3552 26.3449 25.5578 33.5706 17.0244 35.0381C17.0244 35.0381 15.5362 31.9539 10.4926 31.7796C10.4926 31.7796 2.73548 28.6144 11.2378 19.3032Z" fill="#19141E"/>
<path opacity="0.4" fill-rule="evenodd" clip-rule="evenodd" d="M30.6356 49.476L22.3462 47.6934L30.5958 53.2826L30.6356 49.476Z" fill="black"/>
<path fill-rule="evenodd" clip-rule="evenodd" d="M37.6312 34.2095L40.4955 41.2331L37.0627 41.277L37.6312 34.2095Z" fill="#125475"/>
<path fill-rule="evenodd" clip-rule="evenodd" d="M34.2072 34.8916C34.3779 35.8375 33.7515 36.7429 32.8087 36.9137C31.8655 37.0849 30.9627 36.457 30.7923 35.5112C30.6216 34.5653 31.2477 33.6599 32.1909 33.4891C33.134 33.3179 34.0365 33.9458 34.2072 34.8916" fill="#0D0B6D"/>
<path fill-rule="evenodd" clip-rule="evenodd" d="M43.2165 34.8916C43.3872 35.8375 42.7608 36.7429 41.8176 36.9137C40.8748 37.0849 39.972 36.457 39.8016 35.5112C39.6309 34.5653 40.257 33.6599 41.2002 33.4891C42.1433 33.3179 43.0458 33.9458 43.2165 34.8916" fill="#0D0B6D"/>
<path fill-rule="evenodd" clip-rule="evenodd" d="M33.1944 42.3857C33.1944 42.3857 34.2965 44.3943 36.6786 44.3467Z" fill="white"/>
<path d="M33.1944 42.3857C33.1944 42.3857 34.2965 44.3943 36.6786 44.3467" stroke="#252535"/>
</svg>
