<svg width="64" height="64" viewBox="0 0 64 64" fill="none" xmlns="http://www.w3.org/2000/svg">
<path d="M24.5446 16.9355C13.1615 18.4816 17.9306 31.2456 21.13 38.1372C24.8854 46.2267 21.5958 51.6505 21.5958 51.6505L4 45.5684C10.458 37.5726 3.32589 33.1197 5.08166 23.5862C6.6566 15.0344 15.2054 11.176 20.6068 11.3579C23.3029 11.4487 25.5094 12.1247 27.2562 12.9914C27.3226 13.0244 27.386 13.0596 27.4463 13.0969C30.6373 9.90672 35.0542 8 40.1591 8C50.6572 8 60.0893 16.0639 60.0893 26.7712C60.0893 37.4786 51.5791 46.1585 41.0807 46.1585C30.5826 46.1585 22.0721 37.4786 22.0721 26.7712C22.0721 23.1118 22.9586 19.7611 24.5446 16.9355V16.9355Z" fill="#AC6C0B"/>
<path fill-rule="evenodd" clip-rule="evenodd" d="M42.9378 46.6703C42.9378 46.6703 39.0341 46.7826 37.3704 45.8979L42.7304 49.1741L42.9378 46.6703Z" fill="#CF3E83"/>
<path d="M57.4902 32.3466C56.9049 36.7562 55.3864 42.9697 51.6373 45.3968C49.6479 46.6841 46.0252 46.8428 42.9369 46.6694L42.2305 55.2074L32.1535 51.1691C32.1535 51.1691 33.1226 41.7465 33.5425 38.1344C31.5168 36.3474 28.066 35.5186 28.0599 32.4825C28.0599 31.4303 28.6909 29.6111 31.0214 29.6052C34.149 29.6022 33.7022 33.2526 33.7022 33.2526C34.0898 33.399 34.4783 33.3906 34.8657 33.256C37.9625 33.1308 46.5762 31.8682 52.4327 22.1255C53.1161 25.405 54.5368 29.4927 57.4902 32.3466V32.3466Z" fill="#E576C6"/>
<path fill-rule="evenodd" clip-rule="evenodd" d="M51.4237 33.2446L53.6576 38.5173L51.0659 38.4668L51.4237 33.2446Z" fill="#405FD3"/>
<path fill-rule="evenodd" clip-rule="evenodd" d="M49.0451 33.4734C48.9895 34.5268 48.3531 35.3474 47.6238 35.3065C46.8947 35.2656 46.3483 34.3786 46.4041 33.3253C46.46 32.2719 47.0961 31.4513 47.8254 31.4922C48.5548 31.533 49.1009 32.4203 49.0451 33.4734" fill="#0D0B6D"/>
<path fill-rule="evenodd" clip-rule="evenodd" d="M55.8941 33.3053C55.8383 34.3586 55.2022 35.1792 54.4728 35.1384C53.7435 35.0975 53.1974 34.2105 53.2529 33.1571C53.3088 32.1038 53.9448 31.2829 54.6742 31.3237C55.4035 31.3646 55.9497 32.2519 55.8941 33.3053" fill="#0D0B6D"/>
<path d="M50.4302 40.9926C50.4302 40.9926 48.7415 41.5234 47.0491 39.6914" stroke="#1C295E"/>
<path opacity="0.402786" fill-rule="evenodd" clip-rule="evenodd" d="M42.9313 46.6706C42.9313 46.6706 39.028 46.7829 37.364 45.8979L42.7239 49.1741L42.9313 46.6706Z" fill="black"/>
</svg>
