<svg width="64" height="64" viewBox="0 0 64 64" fill="none" xmlns="http://www.w3.org/2000/svg">
<path fill-rule="evenodd" clip-rule="evenodd" d="M55.5649 19.846C55.9414 27.837 60.7406 32.6257 61.1887 40.0836C61.7654 49.6758 55.5209 48.662 55.994 56.5336C56.2394 60.613 14.9843 70.4607 3.35754 57.6333C-4.10322 49.402 3.29692 48.3758 2.6259 37.2083C1.96129 26.1536 10.996 24.4942 10.6457 18.666C10.1797 10.9103 17.2526 0.576674 28.7995 0.0361569C42.8633 -0.6219 54.9955 7.76812 55.5649 19.846Z" fill="#391F00"/>
<path fill-rule="evenodd" clip-rule="evenodd" d="M34.5404 38.6087C34.5404 38.6087 30.4053 38.9102 28.5885 38.1431L34.465 41.0225L34.5404 38.6087Z" fill="#CF3E83"/>
<path d="M25.0677 31.7952C26.479 33.5648 26.0912 36.0013 25.4346 37.4451C25.2133 37.941 23.8296 42.0769 23.6031 42.2719C22.723 43.028 34.283 46.8384 34.283 46.8384L34.5405 38.6086C37.826 38.6222 41.6613 38.2902 43.6981 36.9546C49.7655 32.976 49.3684 20.1816 49.2269 19.5473L43.6391 14.5959C43.6391 14.5959 35.49 11.732 34.3622 13.1634C32.2994 15.7849 27.796 27.2945 23.9672 26.1838C23.9672 26.1838 24.2295 22.6587 20.9104 22.8181C18.4374 22.9367 17.8728 24.7157 17.9354 25.7249C18.1461 29.1322 23.1723 29.4111 25.0677 31.7952" fill="#72A065"/>
<path fill-rule="evenodd" clip-rule="evenodd" d="M42.7995 25.7925L45.4746 30.7436L42.7219 30.8236L42.7995 25.7925Z" fill="#125475"/>
<path fill-rule="evenodd" clip-rule="evenodd" d="M40.2892 26.1302C40.2912 27.1443 39.6635 27.9637 38.8872 27.9606C38.111 27.9575 37.4804 27.1327 37.4785 26.1189C37.4765 25.1049 38.1043 24.2855 38.8805 24.2886C39.6567 24.2917 40.2873 25.1165 40.2892 26.1302" fill="#0D0B6D"/>
<path fill-rule="evenodd" clip-rule="evenodd" d="M47.5461 25.6293C47.5481 26.6433 46.9203 27.4627 46.1441 27.4596C45.3679 27.4565 44.7373 26.6317 44.7354 25.618C44.7334 24.6039 45.3611 23.7845 46.1374 23.7876C46.9136 23.7907 47.5442 24.6155 47.5461 25.6293" fill="#0D0B6D"/>
<path fill-rule="evenodd" clip-rule="evenodd" d="M44.6468 6.2315C44.9201 5.96205 45.2099 5.70512 45.5149 5.46191C46.1994 5.97926 46.8483 6.53136 47.4545 7.1185C50.7156 10.2715 52.8002 14.3693 53.0818 18.9226C53.0892 19.0378 53.0959 19.1503 53.1001 19.2656H53.1033L53.3317 22.9548C53.1694 22.9571 53.01 22.9537 52.8473 22.9478C49.6716 22.8223 46.7998 21.5904 44.774 19.6657C44.0227 18.9508 43.3867 18.1396 42.8924 17.2552C42.8145 17.1241 42.7455 16.9871 42.6765 16.8557C42.3325 16.156 42.0761 15.4147 41.9202 14.6425C31.0654 28.1471 23.9672 26.1839 23.9672 26.1839L24.9962 19.1204L17.0861 11.6258C17.0861 11.6258 39.6443 3.0402 44.6468 6.2315V6.2315Z" fill="#19141E"/>
<path fill-rule="evenodd" clip-rule="evenodd" d="M44.6468 6.2315C44.9201 5.96205 45.2099 5.70512 45.5149 5.46191C46.1994 5.97926 46.8483 6.53136 47.4545 7.1185C50.7156 10.2715 52.8002 14.3693 53.0818 18.9226C53.0892 19.0378 53.0959 19.1503 53.1001 19.2656H53.1033L53.3317 22.9548C53.1694 22.9571 53.01 22.9537 52.8473 22.9478C49.6716 22.8223 46.7998 21.5904 44.774 19.6657C44.0227 18.9508 43.3867 18.1396 42.8924 17.2552C42.8145 17.1241 42.7455 16.9871 42.6765 16.8557C42.3325 16.156 42.0761 15.4147 41.9202 14.6425C31.0654 28.1471 23.9672 26.1839 23.9672 26.1839L24.9962 19.1204L17.0861 11.6258C17.0861 11.6258 39.6443 3.0402 44.6468 6.2315V6.2315Z" fill="#391F00"/>
<path d="M42.1931 33.2798C42.1931 33.2798 40.4321 33.8729 38.5307 32.1982" stroke="#1C295E"/>
<path opacity="0.396996" fill-rule="evenodd" clip-rule="evenodd" d="M34.5337 38.6087C34.5337 38.6087 30.3985 38.9099 28.5818 38.1431L34.4583 41.0225L34.5337 38.6087Z" fill="black"/>
</svg>
