<svg width="64" height="64" viewBox="0 0 64 64" fill="none" xmlns="http://www.w3.org/2000/svg">
<g clip-path="url(#clip0)">
<path d="M34.959 63.666L34.6791 53.9443C34.6791 53.9443 46.4359 54.8849 48.9508 53.5721C48.9508 53.5721 52.0247 37.6589 48.3588 28.8464L48.2845 28.503L23.4739 25.5869L21.9151 39.6947C21.0794 37.2177 14.3498 34.6069 12.5469 38.1539C8.63967 45.8398 22.6102 51.0149 22.6102 51.0149L21.1916 63.7829" fill="#E576C6"/>
<path opacity="0.397786" fill-rule="evenodd" clip-rule="evenodd" d="M34.6789 53.9439L26.751 52.2358L34.6406 57.5913L34.6789 53.9439Z" fill="black"/>
<path fill-rule="evenodd" clip-rule="evenodd" d="M41.2185 38.0571L43.9579 44.787L40.6745 44.829L41.2185 38.0571Z" fill="#405FD3"/>
<path fill-rule="evenodd" clip-rule="evenodd" d="M38.095 39.9695C38.2583 40.8758 37.6592 41.7433 36.7575 41.907C35.8554 42.071 34.992 41.4694 34.8287 40.5631C34.6655 39.6568 35.2649 38.7896 36.1666 38.6256C37.0687 38.4616 37.9318 39.0632 38.095 39.9695" fill="#0D0B6D"/>
<path fill-rule="evenodd" clip-rule="evenodd" d="M46.7115 39.9695C46.8747 40.8758 46.2756 41.7433 45.3739 41.907C44.4718 42.071 43.6084 41.4694 43.4451 40.5631C43.2819 39.6568 43.8813 38.7896 44.783 38.6256C45.6851 38.4616 46.5482 39.0632 46.7115 39.9695" fill="#0D0B6D"/>
<path fill-rule="evenodd" clip-rule="evenodd" d="M37.8121 46.7349C37.8121 46.7349 38.9596 48.6046 41.2325 48.4462Z" fill="white"/>
<path d="M37.8121 46.7349C37.8121 46.7349 38.9596 48.6046 41.2325 48.4462" stroke="#252535"/>
<path fill-rule="evenodd" clip-rule="evenodd" d="M22.9478 40.8778C21.8101 39.4048 20.5427 38.4294 19.3973 37.7851L19.6672 32.1534L31.3218 30.1113C30.3677 36.5671 26.1438 39.5375 22.9478 40.8778V40.8778Z" fill="#19141E"/>
<path d="M10.8675 30.4028C10.8675 30.4028 6.89659 16.0878 18.3245 8.18787C32.4695 -1.59037 48.842 24.0996 48.842 24.0996" fill="#CE3D29"/>
<path fill-rule="evenodd" clip-rule="evenodd" d="M21.0678 4.81318C21.7023 8.04604 19.6083 11.1836 16.3906 11.821C13.1729 12.4588 10.0498 10.3549 9.41534 7.12199C8.78088 3.88883 10.8749 0.751298 14.0926 0.113844C17.3103 -0.523609 20.4334 1.58031 21.0678 4.81318ZM7.95491 32.0484C7.69057 30.5577 8.65656 29.1267 10.1326 28.8221L47.7111 21.0645C49.1271 20.7723 50.5301 21.6191 50.9379 23.0124L53.0647 30.2758C53.5356 31.8838 52.5004 33.5436 50.8548 33.8195L12.2114 40.2989C10.7085 40.5508 9.28365 39.5406 9.01667 38.0336L7.95491 32.0484ZM16.753 15.0507L10.2063 24.0834L26.7102 20.1462L26.7512 20.1672L26.7755 20.1306L42.7612 16.317L32.5005 11.5129L26.7755 20.1306L26.7102 20.1462L16.753 15.0507Z" fill="#2437A8"/>
</g>
<defs>
<clipPath id="clip0">
<rect width="64" height="64" fill="white"/>
</clipPath>
</defs>
</svg>
