<svg width="64" height="64" viewBox="0 0 64 64" fill="none" xmlns="http://www.w3.org/2000/svg">
<path d="M33.6402 57.6879L33.3413 47.3813C33.3413 47.3813 45.8814 48.3786 48.5641 46.9868C48.5641 46.9868 51.8423 30.1161 47.9323 20.7735L47.8531 20.4097L21.3902 17.3179L19.7439 32.3006C18.8525 29.6749 11.6588 26.8805 9.73555 30.6409C5.56809 38.7892 20.469 44.2757 20.469 44.2757L18.9562 57.8119" fill="#72A065"/>
<path opacity="0.400274" fill-rule="evenodd" clip-rule="evenodd" d="M33.3414 47.3811L24.8858 45.5703L33.3009 51.248L33.3414 47.3811Z" fill="black"/>
<path fill-rule="evenodd" clip-rule="evenodd" d="M40.3166 30.5386L43.2384 37.6733L39.7367 37.7179L40.3166 30.5386Z" fill="#2437A8"/>
<path fill-rule="evenodd" clip-rule="evenodd" d="M36.985 32.5663C37.1592 33.5272 36.5202 34.4465 35.558 34.6204C34.5963 34.7943 33.6753 34.1562 33.5015 33.1957C33.3274 32.2349 33.9661 31.3152 34.9282 31.1413C35.8903 30.9677 36.8109 31.6055 36.985 32.5663" fill="#0D0B6D"/>
<path fill-rule="evenodd" clip-rule="evenodd" d="M46.1753 32.5663C46.3494 33.5272 45.7104 34.4465 44.7483 34.6204C43.7865 34.7943 42.8656 34.1562 42.6918 33.1957C42.5176 32.2349 43.1563 31.3152 44.1184 31.1413C45.0805 30.9677 46.0011 31.6055 46.1753 32.5663" fill="#0D0B6D"/>
<path fill-rule="evenodd" clip-rule="evenodd" d="M36.6833 39.7383C36.6833 39.7383 37.9072 41.7205 40.3315 41.5526Z" fill="white"/>
<path d="M36.6833 39.7383C36.6833 39.7383 37.9072 41.7205 40.3315 41.5526" stroke="#252535"/>
<path fill-rule="evenodd" clip-rule="evenodd" d="M19.9038 32.4602C17.9278 30.414 15.7772 29.5471 14.4727 29.1871L14.7216 24.0233L27.1523 21.8584C26.2957 27.6192 22.9684 30.7621 19.9038 32.4602V32.4602Z" fill="#786100"/>
<path fill-rule="evenodd" clip-rule="evenodd" d="M48.666 22.7881C47.5461 21.724 40.2469 21.3944 31.4725 22.0693C29.4317 22.2262 27.4751 22.424 25.6659 22.6531C19.6849 23.4033 15.2842 24.4705 14.5679 25.4091C13.7733 13.6821 20.9645 6.69807 30.3797 6.04832C36.5565 5.62143 42.1582 8.02897 45.5113 13.0449C47.2271 15.6157 48.3561 18.8739 48.666 22.7881" fill="#393954"/>
<path fill-rule="evenodd" clip-rule="evenodd" d="M48.8075 23.0203H48.8043C48.7924 22.9387 48.7443 22.8602 48.666 22.788C47.5461 21.7239 40.2469 21.3943 31.4726 22.0692C29.4314 22.2261 27.4751 22.4239 25.666 22.653C28.2395 20.211 32.9473 16.3501 38.5009 14.6174C40.8758 13.8766 43.2841 13.3368 45.5113 13.0448C50.9175 12.3292 55.255 13.0637 55.4718 15.8667C55.7516 19.5141 49.7407 22.5683 48.8075 23.0203" fill="#161629"/>
</svg>
