<svg width="500" height="500" viewBox="0 0 500 500" fill="none" xmlns="http://www.w3.org/2000/svg">
<path fill-rule="evenodd" clip-rule="evenodd" d="M217.572 44.0045C247.903 43.5518 268.363 77.2814 294.705 93.3939C319.256 108.411 346.675 116.704 368.308 136.202C392.5 158.007 428.726 179.667 427.989 213.526C427.177 250.857 369.713 263.996 364.723 300.953C359.054 342.943 417.768 382.904 400.001 420.822C384.204 454.536 331.676 433.024 297.877 443.611C269.861 452.386 246.742 479.123 217.572 477.963C188.471 476.806 168.008 446.201 140.088 437.336C105.945 426.496 63.6261 444.07 35.8072 420.255C8.98695 397.295 -3.13936 354.551 0.692177 318.003C4.55914 281.116 39.5443 258.059 56.2217 225.523C68.3169 201.927 71.188 174.288 85.6444 152.269C100.569 129.536 120.872 112.582 141.467 95.6808C165.613 75.8659 187.159 44.4584 217.572 44.0045Z" fill="#BEC9FF"/>
<path fill-rule="evenodd" clip-rule="evenodd" d="M309.907 27.1332C352.065 19.8699 399.149 -18.9636 433.836 11.5221C468.463 41.955 451.336 110.386 462.342 161.103C472.511 207.961 513.034 253.366 495.773 296.939C478.017 341.763 420.316 325.302 386.494 352.574C355.566 377.512 346.706 432.16 309.907 436C273.55 439.794 252.072 397.345 223.309 369.603C195.875 343.142 158.395 328.274 145.563 288.298C132.474 247.524 145.15 202.278 156.22 160.6C167.257 119.043 179.818 75.4455 208.776 50.2973C237.531 25.3261 275.099 33.1302 309.907 27.1332Z" fill="#F00E96" fill-opacity="0.35"/>
</svg>
