<svg width="469" height="393" viewBox="0 0 469 393" fill="none" xmlns="http://www.w3.org/2000/svg">
<path fill-rule="evenodd" clip-rule="evenodd" d="M238.358 0.00408481C271.503 -0.405814 293.86 30.1373 322.646 44.7277C349.475 58.3258 379.436 65.8353 403.076 83.4915C429.512 103.237 469.098 122.85 468.293 153.511C467.405 187.316 404.611 199.213 399.159 232.679C392.963 270.702 457.125 306.888 437.709 341.224C420.447 371.752 363.046 352.273 326.112 361.86C295.497 369.806 270.233 394.017 238.358 392.967C206.558 391.919 184.197 364.205 153.687 356.178C116.377 346.362 70.1322 362.276 39.7328 340.71C10.4247 319.919 -2.82644 281.214 1.36051 248.118C5.58617 214.716 43.8165 193.837 62.0409 164.375C75.258 143.007 78.3955 117.98 94.1929 98.0409C110.502 77.4558 132.689 62.1028 155.194 46.7985C181.58 28.8556 205.124 0.415095 238.358 0.00408481Z" fill="#BEC9FF"/>
</svg>
